<?xml version="1.0" encoding="UTF-8"?>
<svg xmlns="http://www.w3.org/2000/svg" xmlns:xlink="http://www.w3.org/1999/xlink" width="16px" height="16px" viewBox="0 0 16 16" version="1.1">
<defs>
<radialGradient id="radial0" gradientUnits="userSpaceOnUse" cx="199.788406" cy="628.437927" fx="199.788406" fy="628.437927" r="52.351501" gradientTransform="matrix(-0.187947,0.0530053,-0.0381883,-0.135406,77.031904,82.003983)">
<stop offset="0" style="stop-color:rgb(100%,0%,37.254902%);stop-opacity:1;"/>
<stop offset="1" style="stop-color:rgb(98.823529%,0.392157%,84.705882%);stop-opacity:1;"/>
</radialGradient>
<radialGradient id="radial1" gradientUnits="userSpaceOnUse" cx="158.429001" cy="578.088013" fx="158.429001" fy="578.088013" r="52.351501" gradientTransform="matrix(0,-0.243957,0.258833,0,-145.378347,55.882145)">
<stop offset="0" style="stop-color:rgb(100%,80%,0%);stop-opacity:1;"/>
<stop offset="0.1242" style="stop-color:rgb(100%,80%,0%);stop-opacity:1;"/>
<stop offset="0.5672" style="stop-color:rgb(99.607843%,29.019608%,1.960784%);stop-opacity:1;"/>
<stop offset="0.6942" style="stop-color:rgb(100%,5.882353%,24.705882%);stop-opacity:1;"/>
<stop offset="1" style="stop-color:rgb(99.607843%,2.352941%,34.117647%);stop-opacity:0;"/>
</radialGradient>
<radialGradient id="radial2" gradientUnits="userSpaceOnUse" cx="172.614899" cy="600.692383" fx="172.614899" fy="600.692383" r="65" gradientTransform="matrix(0.0407832,-0.0702708,0.0914845,0.0530954,-53.589546,-3.989869)">
<stop offset="0" style="stop-color:rgb(100%,80%,0%);stop-opacity:1;"/>
<stop offset="1" style="stop-color:rgb(100%,80%,0%);stop-opacity:0;"/>
</radialGradient>
<radialGradient id="radial3" gradientUnits="userSpaceOnUse" cx="144.011993" cy="51.3367" fx="144.011993" fy="51.3367" r="67.081001" gradientTransform="matrix(-0.145067,0.0408485,-0.0139135,-0.0494253,23.776568,-2.69383)">
<stop offset="0" style="stop-color:rgb(47.058824%,4.705882%,100%);stop-opacity:1;"/>
<stop offset="1" style="stop-color:rgb(50.980392%,4.313725%,100%);stop-opacity:0;"/>
</radialGradient>
</defs>
<g id="surface1">
<path style=" stroke:none;fill-rule:nonzero;fill:url(#radial0);" d="M 8.003906 0 C 4.664062 0 3.6875 0.00390625 3.496094 0.0195312 C 2.8125 0.078125 2.382812 0.183594 1.917969 0.414062 C 1.5625 0.59375 1.277344 0.800781 1 1.089844 C 0.492188 1.617188 0.183594 2.265625 0.0742188 3.035156 C 0.0195312 3.410156 0.00390625 3.484375 0 5.398438 C 0 6.035156 0 6.871094 0 7.996094 C 0 11.335938 0.00390625 12.3125 0.0195312 12.5 C 0.0742188 13.167969 0.179688 13.585938 0.402344 14.046875 C 0.824219 14.925781 1.632812 15.585938 2.585938 15.832031 C 2.914062 15.917969 3.28125 15.964844 3.746094 15.984375 C 3.945312 15.992188 5.964844 16 7.984375 16 C 10.007812 16 12.027344 15.996094 12.21875 15.988281 C 12.761719 15.960938 13.074219 15.921875 13.421875 15.832031 C 14.382812 15.582031 15.175781 14.933594 15.609375 14.042969 C 15.824219 13.59375 15.933594 13.15625 15.984375 12.527344 C 15.996094 12.386719 16 10.191406 16 7.996094 C 16 5.800781 15.996094 3.605469 15.984375 3.46875 C 15.933594 2.824219 15.824219 2.394531 15.597656 1.9375 C 15.414062 1.5625 15.210938 1.285156 14.914062 0.996094 C 14.386719 0.492188 13.738281 0.183594 12.96875 0.0742188 C 12.59375 0.0195312 12.519531 0.00390625 10.605469 0 Z M 8.003906 0 "/>
<path style=" stroke:none;fill-rule:nonzero;fill:url(#radial1);" d="M 8.003906 0 C 4.664062 0 3.6875 0.00390625 3.496094 0.0195312 C 2.8125 0.078125 2.382812 0.183594 1.917969 0.414062 C 1.5625 0.59375 1.277344 0.800781 1 1.089844 C 0.492188 1.617188 0.183594 2.265625 0.0742188 3.035156 C 0.0195312 3.410156 0.00390625 3.484375 0 5.398438 C 0 6.035156 0 6.871094 0 7.996094 C 0 11.335938 0.00390625 12.3125 0.0195312 12.5 C 0.0742188 13.167969 0.179688 13.585938 0.402344 14.046875 C 0.824219 14.925781 1.632812 15.585938 2.585938 15.832031 C 2.914062 15.917969 3.28125 15.964844 3.746094 15.984375 C 3.945312 15.992188 5.964844 16 7.984375 16 C 10.007812 16 12.027344 15.996094 12.21875 15.988281 C 12.761719 15.960938 13.074219 15.921875 13.421875 15.832031 C 14.382812 15.582031 15.175781 14.933594 15.609375 14.042969 C 15.824219 13.59375 15.933594 13.15625 15.984375 12.527344 C 15.996094 12.386719 16 10.191406 16 7.996094 C 16 5.800781 15.996094 3.605469 15.984375 3.46875 C 15.933594 2.824219 15.824219 2.394531 15.597656 1.9375 C 15.414062 1.5625 15.210938 1.285156 14.914062 0.996094 C 14.386719 0.492188 13.738281 0.183594 12.96875 0.0742188 C 12.59375 0.0195312 12.519531 0.00390625 10.605469 0 Z M 8.003906 0 "/>
<path style=" stroke:none;fill-rule:nonzero;fill:url(#radial2);" d="M 8.003906 0 C 4.664062 0 3.6875 0.00390625 3.496094 0.0195312 C 2.8125 0.078125 2.382812 0.183594 1.917969 0.414062 C 1.5625 0.59375 1.277344 0.800781 1 1.089844 C 0.492188 1.617188 0.183594 2.265625 0.0742188 3.035156 C 0.0195312 3.410156 0.00390625 3.484375 0 5.398438 C 0 6.035156 0 6.871094 0 7.996094 C 0 11.335938 0.00390625 12.3125 0.0195312 12.5 C 0.0742188 13.167969 0.179688 13.585938 0.402344 14.046875 C 0.824219 14.925781 1.632812 15.585938 2.585938 15.832031 C 2.914062 15.917969 3.28125 15.964844 3.746094 15.984375 C 3.945312 15.992188 5.964844 16 7.984375 16 C 10.007812 16 12.027344 15.996094 12.21875 15.988281 C 12.761719 15.960938 13.074219 15.921875 13.421875 15.832031 C 14.382812 15.582031 15.175781 14.933594 15.609375 14.042969 C 15.824219 13.59375 15.933594 13.15625 15.984375 12.527344 C 15.996094 12.386719 16 10.191406 16 7.996094 C 16 5.800781 15.996094 3.605469 15.984375 3.46875 C 15.933594 2.824219 15.824219 2.394531 15.597656 1.9375 C 15.414062 1.5625 15.210938 1.285156 14.914062 0.996094 C 14.386719 0.492188 13.738281 0.183594 12.96875 0.0742188 C 12.59375 0.0195312 12.519531 0.00390625 10.605469 0 Z M 8.003906 0 "/>
<path style=" stroke:none;fill-rule:nonzero;fill:url(#radial3);" d="M 8.003906 0 C 4.664062 0 3.6875 0.00390625 3.496094 0.0195312 C 2.8125 0.078125 2.382812 0.183594 1.917969 0.414062 C 1.5625 0.59375 1.277344 0.800781 1 1.089844 C 0.492188 1.617188 0.183594 2.265625 0.0742188 3.035156 C 0.0195312 3.410156 0.00390625 3.484375 0 5.398438 C 0 6.035156 0 6.871094 0 7.996094 C 0 11.335938 0.00390625 12.3125 0.0195312 12.5 C 0.0742188 13.167969 0.179688 13.585938 0.402344 14.046875 C 0.824219 14.925781 1.632812 15.585938 2.585938 15.832031 C 2.914062 15.917969 3.28125 15.964844 3.746094 15.984375 C 3.945312 15.992188 5.964844 16 7.984375 16 C 10.007812 16 12.027344 15.996094 12.21875 15.988281 C 12.761719 15.960938 13.074219 15.921875 13.421875 15.832031 C 14.382812 15.582031 15.175781 14.933594 15.609375 14.042969 C 15.824219 13.59375 15.933594 13.15625 15.984375 12.527344 C 15.996094 12.386719 16 10.191406 16 7.996094 C 16 5.800781 15.996094 3.605469 15.984375 3.46875 C 15.933594 2.824219 15.824219 2.394531 15.597656 1.9375 C 15.414062 1.5625 15.210938 1.285156 14.914062 0.996094 C 14.386719 0.492188 13.738281 0.183594 12.96875 0.0742188 C 12.59375 0.0195312 12.519531 0.00390625 10.605469 0 Z M 8.003906 0 "/>
<path style=" stroke:none;fill-rule:nonzero;fill:rgb(100%,100%,100%);fill-opacity:1;" d="M 8.003906 2.054688 C 6.386719 2.054688 6.183594 2.0625 5.550781 2.089844 C 4.917969 2.121094 4.484375 2.21875 4.105469 2.367188 C 3.714844 2.519531 3.382812 2.722656 3.050781 3.050781 C 2.722656 3.382812 2.519531 3.714844 2.367188 4.105469 C 2.21875 4.484375 2.117188 4.914062 2.089844 5.546875 C 2.0625 6.183594 2.054688 6.382812 2.054688 8 C 2.054688 9.613281 2.0625 9.816406 2.089844 10.449219 C 2.117188 11.082031 2.21875 11.515625 2.367188 11.890625 C 2.519531 12.28125 2.722656 12.613281 3.050781 12.945312 C 3.382812 13.277344 3.714844 13.480469 4.105469 13.632812 C 4.484375 13.777344 4.917969 13.878906 5.550781 13.90625 C 6.183594 13.9375 6.386719 13.945312 8.003906 13.945312 C 9.617188 13.945312 9.820312 13.9375 10.453125 13.90625 C 11.089844 13.878906 11.519531 13.777344 11.898438 13.632812 C 12.289062 13.480469 12.621094 13.277344 12.953125 12.945312 C 13.285156 12.613281 13.488281 12.28125 13.640625 11.890625 C 13.785156 11.515625 13.886719 11.082031 13.914062 10.449219 C 13.945312 9.816406 13.953125 9.613281 13.953125 8 C 13.953125 6.382812 13.945312 6.183594 13.914062 5.546875 C 13.886719 4.914062 13.785156 4.484375 13.640625 4.105469 C 13.488281 3.714844 13.285156 3.382812 12.953125 3.050781 C 12.621094 2.722656 12.289062 2.519531 11.898438 2.367188 C 11.519531 2.21875 11.085938 2.121094 10.453125 2.089844 C 9.820312 2.0625 9.617188 2.054688 8 2.054688 Z M 7.46875 3.125 C 7.628906 3.125 7.804688 3.125 8.003906 3.125 C 9.589844 3.125 9.78125 3.132812 10.40625 3.160156 C 10.988281 3.1875 11.300781 3.285156 11.511719 3.363281 C 11.789062 3.472656 11.988281 3.601562 12.195312 3.808594 C 12.402344 4.015625 12.53125 4.214844 12.640625 4.492188 C 12.722656 4.703125 12.820312 5.015625 12.84375 5.597656 C 12.875 6.222656 12.878906 6.410156 12.878906 7.996094 C 12.878906 9.585938 12.875 9.773438 12.84375 10.398438 C 12.820312 10.976562 12.722656 11.292969 12.640625 11.503906 C 12.53125 11.78125 12.402344 11.976562 12.195312 12.183594 C 11.988281 12.394531 11.789062 12.523438 11.511719 12.628906 C 11.300781 12.710938 10.988281 12.808594 10.40625 12.835938 C 9.78125 12.863281 9.589844 12.871094 8.003906 12.871094 C 6.414062 12.871094 6.226562 12.863281 5.597656 12.835938 C 5.019531 12.808594 4.703125 12.710938 4.496094 12.628906 C 4.21875 12.523438 4.019531 12.394531 3.8125 12.183594 C 3.601562 11.976562 3.472656 11.78125 3.367188 11.5 C 3.285156 11.292969 3.1875 10.976562 3.160156 10.398438 C 3.132812 9.773438 3.125 9.582031 3.125 7.996094 C 3.125 6.410156 3.132812 6.222656 3.160156 5.59375 C 3.1875 5.015625 3.285156 4.699219 3.367188 4.492188 C 3.472656 4.214844 3.601562 4.015625 3.8125 3.808594 C 4.019531 3.597656 4.21875 3.46875 4.496094 3.363281 C 4.703125 3.28125 5.019531 3.183594 5.597656 3.15625 C 6.148438 3.132812 6.359375 3.125 7.46875 3.125 Z M 11.179688 4.113281 C 10.785156 4.113281 10.464844 4.433594 10.464844 4.824219 C 10.464844 5.21875 10.785156 5.539062 11.179688 5.539062 C 11.574219 5.539062 11.894531 5.21875 11.894531 4.824219 C 11.894531 4.433594 11.574219 4.113281 11.179688 4.113281 Z M 8.003906 4.945312 C 6.316406 4.945312 4.949219 6.3125 4.949219 8 C 4.949219 9.683594 6.316406 11.050781 8.003906 11.050781 C 9.691406 11.050781 11.058594 9.683594 11.058594 8 C 11.058594 6.3125 9.691406 4.945312 8.003906 4.945312 Z M 8.003906 6.015625 C 9.097656 6.015625 9.984375 6.90625 9.984375 8 C 9.984375 9.09375 9.097656 9.980469 8.003906 9.980469 C 6.90625 9.980469 6.019531 9.09375 6.019531 8 C 6.019531 6.90625 6.90625 6.015625 8.003906 6.015625 Z M 8.003906 6.015625 "/>
</g>
</svg>
