<?xml version="1.0" encoding="UTF-8"?>
<svg xmlns="http://www.w3.org/2000/svg" xmlns:xlink="http://www.w3.org/1999/xlink" width="14px" height="16px" viewBox="0 0 14 16" version="1.1">
<g id="surface1">
<path style=" stroke:none;fill-rule:nonzero;fill:rgb(0%,94.901961%,91.764706%);fill-opacity:1;" d="M 4.699219 7.238281 L 4.699219 6.75 C 4.515625 6.726562 4.335938 6.714844 4.152344 6.714844 C 1.921875 6.714844 0.105469 8.40625 0.105469 10.488281 C 0.105469 11.761719 0.789062 12.890625 1.832031 13.574219 C 1.136719 12.878906 0.746094 11.960938 0.746094 11.007812 C 0.746094 8.957031 2.511719 7.285156 4.699219 7.238281 "/>
<path style=" stroke:none;fill-rule:nonzero;fill:rgb(0%,94.901961%,91.764706%);fill-opacity:1;" d="M 4.804688 12.59375 C 5.75 12.59375 6.515625 11.851562 6.550781 10.925781 L 6.554688 2.664062 L 8.082031 2.664062 C 8.046875 2.492188 8.03125 2.316406 8.03125 2.140625 L 5.949219 2.140625 L 5.945312 10.402344 C 5.910156 11.328125 5.140625 12.070312 4.199219 12.070312 C 3.914062 12.070312 3.636719 12.003906 3.386719 11.871094 C 3.714844 12.324219 4.242188 12.59375 4.804688 12.59375 M 10.929688 5.46875 L 10.929688 5.007812 C 10.371094 5.007812 9.820312 4.847656 9.351562 4.542969 C 9.765625 5.015625 10.316406 5.335938 10.929688 5.46875 "/>
<path style=" stroke:none;fill-rule:nonzero;fill:rgb(100%,0%,30.980393%);fill-opacity:1;" d="M 9.289062 4.660156 C 8.832031 4.144531 8.578125 3.480469 8.578125 2.792969 L 8.023438 2.792969 C 8.167969 3.5625 8.628906 4.238281 9.289062 4.660156 M 4.148438 8.695312 C 3.183594 8.695312 2.402344 9.46875 2.402344 10.417969 C 2.402344 11.058594 2.765625 11.648438 3.339844 11.941406 C 3.125 11.648438 3.007812 11.296875 3.007812 10.9375 C 3.007812 9.988281 3.789062 9.214844 4.753906 9.214844 C 4.933594 9.214844 5.105469 9.246094 5.269531 9.296875 L 5.269531 7.203125 C 5.097656 7.179688 4.925781 7.167969 4.753906 7.167969 C 4.722656 7.167969 4.695312 7.167969 4.664062 7.167969 L 4.664062 8.773438 C 4.496094 8.722656 4.324219 8.695312 4.148438 8.695312 "/>
<path style=" stroke:none;fill-rule:nonzero;fill:rgb(100%,0%,30.980393%);fill-opacity:1;" d="M 10.652344 5.734375 L 10.652344 7.328125 C 9.617188 7.332031 8.605469 7.011719 7.761719 6.410156 L 7.761719 10.582031 C 7.761719 12.664062 6.046875 14.359375 3.9375 14.359375 C 3.121094 14.359375 2.367188 14.105469 1.746094 13.675781 C 2.46875 14.445312 3.484375 14.882812 4.542969 14.882812 C 6.652344 14.882812 8.367188 13.1875 8.367188 11.105469 L 8.367188 6.933594 C 9.210938 7.53125 10.222656 7.851562 11.257812 7.851562 L 11.257812 5.796875 C 11.054688 5.796875 10.851562 5.777344 10.652344 5.734375 "/>
<path style=" stroke:none;fill-rule:nonzero;fill:rgb(100%,100%,100%);fill-opacity:1;" d="M 7.972656 10.445312 L 7.972656 6.265625 C 8.839844 6.867188 9.871094 7.191406 10.929688 7.1875 L 10.929688 5.589844 C 10.308594 5.460938 9.742188 5.136719 9.320312 4.667969 C 8.640625 4.242188 8.167969 3.5625 8.019531 2.792969 L 6.464844 2.792969 L 6.460938 11.03125 C 6.425781 11.953125 5.640625 12.695312 4.675781 12.695312 C 4.101562 12.695312 3.5625 12.425781 3.226562 11.972656 C 2.636719 11.675781 2.269531 11.085938 2.269531 10.445312 C 2.269531 9.492188 3.070312 8.71875 4.054688 8.71875 C 4.238281 8.71875 4.417969 8.746094 4.582031 8.796875 L 4.582031 7.183594 C 2.46875 7.234375 0.761719 8.910156 0.761719 10.964844 C 0.761719 11.960938 1.160156 12.867188 1.8125 13.542969 C 2.472656 13.992188 3.257812 14.230469 4.054688 14.230469 C 6.214844 14.230469 7.972656 12.53125 7.972656 10.445312 "/>
</g>
</svg>
